<?xml version="1.0" encoding="utf-8"?>
<!-- Generator: Adobe Illustrator 19.0.1, SVG Export Plug-In . SVG Version: 6.00 Build 0)  -->
<svg version="1.1" xmlns="http://www.w3.org/2000/svg" xmlns:xlink="http://www.w3.org/1999/xlink" x="0px" y="0px"
	 viewBox="0 0 376.5 162" enable-background="new 0 0 376.5 162" xml:space="preserve">
<g id="Слой_1">
	<g>
		<path fill="#E30613" stroke="#E6332A" stroke-width="0.25" stroke-miterlimit="10" d="M49.3,8.7c2.6,0,5,1.9,5,5.2
			c0,0.9-0.1,1.9-0.5,3l-5.3,14.5c1.4-1.1,3.7-1.7,6.2-1.7c1.3,0,2.7,0.1,4.1,0.5c0.6-0.5,2.1-2.8,10.4-17.9
			c1.4-2.5,3.7-3.7,5.9-3.7c2.5,0,4.8,1.7,4.8,4.5c0,1.1-0.3,2.3-1.1,3.7C71,31.2,69.2,33.1,67,34.8c2.2,1.9,3.5,4.5,3.5,7.8
			c0,1.4-0.2,3-0.9,4.6L66,56.6c-0.6,1.4-0.8,2.7-0.8,3.5c0,1.3,0.9,1.7,2,1.7c3,0,6.9-2.2,10.2-10.9c0.9-2.4,3-3.5,5-3.5
			c2.1,0,4,1.2,4,3.5c0,0.4-0.1,0.9-0.2,1.4c-4.6,14.3-13.2,18.9-20.4,18.9c-6.7,0-12.2-3.8-12.2-10.7c0-1.5,0.4-3.3,1-5.2l2.7-7.5
			c0.4-1.2,0.6-2.2,0.6-3.2c0-1.2-0.4-2.9-1.7-2.9c-0.3,0-0.6,0.1-1.1,0.3c-1.1,0.6-2.7,1-4.2,1c-2.2,0-4.5-0.8-5.5-3l-8.9,25.6
			c-1.3,3.7-3.9,5.5-6.4,5.5c-2.6,0-5-1.8-5-5.2c0-0.6,0.1-1.4,0.3-2.2c0.1-0.6,0.2-0.4,17.3-49.6C43.9,10.4,46.7,8.7,49.3,8.7z"/>
		<path fill="#E30613" stroke="#E6332A" stroke-width="0.25" stroke-miterlimit="10" d="M121,46.9c2.2,0,4.4,1.4,4.4,3.7
			c0,0.4-0.1,0.9-0.2,1.3c-5.1,15-13,19.2-19.8,19.2c-4.3,0-8.2-1.9-10.3-5c-2.7,2.9-5.9,5-10.2,5c-6,0-10.8-4-10.8-9.8
			c0-1.2,0.2-2.5,0.6-3.8L83.1,33c1-2.9,3.2-4.1,5.2-4.1c2.7,0,5.3,2,5.3,5c0,0.7-0.1,1.4-0.4,2.2l-7.8,22.5
			c-0.2,0.7-0.4,1.7-0.4,2.2c0,1.1,0.6,1.8,1.7,1.8c2.9,0,6-3.4,8-7.3l7.9-22.1c1.1-3,3.2-4.2,5.3-4.2c2.6,0,5.1,1.9,5.1,4.8
			c0,0.6-0.1,1.3-0.4,2L104,59.7c-0.1,0.4-0.2,0.8-0.2,1.1c0,1,0.9,1.7,2.2,1.7c3.3,0,7.3-3.7,10.5-12.3
			C117.2,47.9,119.1,46.9,121,46.9z"/>
		<path fill="#E30613" stroke="#E6332A" stroke-width="0.25" stroke-miterlimit="10" d="M161,52.3c-4.6,13.2-14,19.3-29.2,19.3
			c-10.9,0-19.4-3.8-19.4-12.5c0-4.6,3-9.3,7.2-11.3c2.9-5.4,5.9-10.9,8.7-16.4c1.4-2.8,4-4.2,6.8-4.2c3.6,0,6,2.9,6,6
			c0,2.2-1.6,4.5-3.6,5.3c0.3,2.2,1.7,4.7,3.2,7.1c2,3.4,4.2,7.3,4.2,11.5c0,0.9-0.1,1.8-0.3,2.7c3.2-1.9,5.8-4.9,7.6-9.1
			c0.2-0.5,1-1,1.6-1l5.8,0.5C160.7,50.3,161.4,51.3,161,52.3z M128.3,63.3c4-0.1,7.1-3.1,7.1-6.6c0-3-3.2-8.6-4.2-11.7
			c-0.4,0.9-0.9,1.9-1.5,3.1c2.1,1.4,3.2,3.6,3.2,5.9c0,3.5-2.9,6.1-6,6.1c-1.7,0-3.2-0.6-4.2-1.7v0.4
			C122.6,61.5,125.3,63.3,128.3,63.3z"/>
		<path fill="#E30613" stroke="#E6332A" stroke-width="0.25" stroke-miterlimit="10" d="M180.3,47.5c2.2,0,4.3,1.4,4.3,3.5
			c0,0.4-0.1,0.9-0.3,1.4c-4.1,11.8-11.8,18.6-21,18.6c-7.4,0-14-4.3-14-11.7c0-1.5,0.3-3.1,0.9-4.8v0.1l6-17.4h-2.4
			c-1.9,0-3.2-1.7-3.2-3.7c0-2.3,1.7-4.8,5.5-4.8h3l5.8-16.1c0.9-2.5,2.9-4.2,5.3-4.2c3.2,0,5,2.2,5,4.8c0,0.4-0.1,0.9-0.2,1.4
			l-4.8,14h3.2c2.7,0,4,1.7,4,3.5c0,2.4-1.9,5-5.6,5h-4.7l-7.1,20.1c-0.1,0.5-0.3,1.1-0.3,1.6c0,1.9,1.6,3.5,4.2,3.5
			c4.2,0,8.7-3.8,11.6-11.7C176.5,48.5,178.5,47.5,180.3,47.5z"/>
		<path fill="#E30613" stroke="#E6332A" stroke-width="0.25" stroke-miterlimit="10" d="M204.9,56.1c4.2,0,7.6-3.1,9.1-7.6
			c0.8-2.7,2.8-3.8,4.8-3.8c2.1,0,4,1.5,4,4.2c0,0.6-0.1,1.4-0.4,2.2c-2.4,7.6-9.1,13.6-17.6,13.6c-1.5,0-3-0.2-4.3-0.6
			c-3,5.2-8.1,7-13.8,7c-7.3,0-13.8-4.5-13.8-12.1c0-1.6,0.3-3.4,0.9-5.2l5.3-14.8c2.3-6.4,8.7-10.2,15.5-10.2
			c7.8,0,13.8,4.9,13.8,12.2c0,2.9-2.2,9.1-3.4,10.9c-0.4,0.6-0.9,1.2-1.4,1.6c0.3,1.4,0.3,2.5,0.3,2.4
			C204.2,56.1,204.6,56.1,204.9,56.1z M198.2,40.5c0-1.7-1.4-3.2-3.7-3.2s-4.8,1.4-5.6,3.7l-5.1,14.6c-0.3,0.7-0.6,2-0.6,3.4
			c0,1.7,0.7,3.5,3.5,3.5c2.2,0,4.3-1.2,5.3-3.7c-1.4-1.2-2.6-2.4-2.7-4.9c0-4.3,3.5-7.6,7.5-7.1c0.1-0.6,0.3-1.2,0.5-1.8
			C197.7,43.5,198.2,41.8,198.2,40.5z"/>
		<path fill="#E30613" stroke="#E6332A" stroke-width="0.25" stroke-miterlimit="10" d="M279.1,50.6c0,0.5-0.1,1-0.3,1.5
			c-5,14.4-12.9,19-20,19c-6.3,0-11.7-3.7-11.7-10.2c0-1.5,0.3-3.2,0.9-4.8l5.5-14.9c0.2-0.6,0.3-1.2,0.3-1.6c0-1.4-1-2.2-2.3-2.2
			c-2.4,0-5.1,2.2-6.4,5.8l-8.3,23.4c-1.1,3.1-3.7,4.5-6,4.5c-2.4,0-4.6-1.5-4.6-4.2c0-0.8,0.2-1.7,0.6-2.7l8.4-23.4
			c0.2-0.5,0.3-1,0.3-1.4c0-1.3-1-2.1-2.4-2.1c-2.2,0-4.5,1.7-6,4.8l-8.6,24.6c-1,2.9-3.5,4.3-5.9,4.3c-2.5,0-4.8-1.5-4.8-4.2
			c0-0.5,0.1-1.1,0.3-1.7L219.4,32c0.9-2.1,3.2-3.2,5.4-3.2c1.6,0,3.2,0.6,4,1.7c1.3-0.8,3-1.7,6-1.7c4.2,0,6.6,1.6,8.1,3.3
			c3.3-2.7,7.1-3.3,9.6-3.3c6.6,0,12,3.8,12,9.9c0,1.2-0.3,2.7-0.7,4l-6.1,16.8c-0.1,0.3-0.1,0.6-0.1,1c0,1.1,0.7,1.9,2.2,1.9
			c3.4,0,7.3-3.5,10.5-12.2c0.7-2.3,2.8-3.4,4.8-3.4C277,47,279.1,48.3,279.1,50.6z"/>
		<path fill="#E30613" stroke="#E6332A" stroke-width="0.25" stroke-miterlimit="10" d="M131.8,95.1c2.6,0,5,1.9,5,5.2
			c0,0.9-0.1,1.9-0.5,3l-5.3,14.5c1.4-1.1,3.7-1.7,6.2-1.7c1.3,0,2.7,0.1,4.1,0.5c0.6-0.5,2.1-2.8,10.4-17.9
			c1.4-2.5,3.7-3.7,5.9-3.7c2.5,0,4.8,1.7,4.8,4.5c0,1.1-0.3,2.3-1.1,3.7c-7.8,14.3-9.6,16.1-11.9,17.8c2.2,1.9,3.5,4.5,3.5,7.8
			c0,1.4-0.2,3-0.9,4.6l-3.5,9.4c-0.6,1.4-0.8,2.7-0.8,3.5c0,1.3,0.9,1.7,2,1.7c3,0,6.9-2.2,10.2-10.9c0.9-2.4,3-3.5,5-3.5
			c2.1,0,4,1.2,4,3.5c0,0.4-0.1,0.9-0.2,1.4c-4.6,14.3-13.2,18.9-20.4,18.9c-6.7,0-12.2-3.8-12.2-10.7c0-1.5,0.4-3.3,1-5.2l2.7-7.5
			c0.4-1.2,0.6-2.2,0.6-3.2c0-1.2-0.4-2.9-1.7-2.9c-0.3,0-0.6,0.1-1.1,0.3c-1.1,0.6-2.7,1-4.2,1c-2.2,0-4.5-0.8-5.5-3l-8.9,25.6
			c-1.3,3.7-3.9,5.5-6.4,5.5c-2.6,0-5-1.8-5-5.2c0-0.6,0.1-1.4,0.3-2.2c0.1-0.6,0.2-0.4,17.3-49.6C126.4,96.8,129.3,95.1,131.8,95.1
			z"/>
		<path fill="#E30613" stroke="#E6332A" stroke-width="0.25" stroke-miterlimit="10" d="M203.5,133.3c2.2,0,4.4,1.4,4.4,3.7
			c0,0.4-0.1,0.9-0.2,1.3c-5.1,15-13,19.2-19.8,19.2c-4.3,0-8.2-1.9-10.3-5c-2.7,2.9-5.9,5-10.2,5c-6,0-10.8-4-10.8-9.8
			c0-1.2,0.2-2.5,0.6-3.8l8.4-24.6c1-2.9,3.2-4.1,5.2-4.1c2.7,0,5.3,2,5.3,5c0,0.7-0.1,1.4-0.4,2.2l-7.8,22.5
			c-0.2,0.7-0.4,1.7-0.4,2.2c0,1.1,0.6,1.8,1.7,1.8c2.9,0,6-3.4,8-7.3l7.9-22.1c1.1-3,3.2-4.2,5.3-4.2c2.6,0,5.1,1.9,5.1,4.8
			c0,0.6-0.1,1.3-0.4,2l-8.6,24.1c-0.1,0.4-0.2,0.8-0.2,1.1c0,1,0.9,1.7,2.2,1.7c3.3,0,7.3-3.7,10.5-12.3
			C199.7,134.3,201.6,133.3,203.5,133.3z"/>
		<path fill="#E30613" stroke="#E6332A" stroke-width="0.25" stroke-miterlimit="10" d="M206.1,147c0,1.1,0.8,1.9,2.2,1.9
			c3.4,0,7.6-3.7,10.8-12.3c1-2.7,3-3.7,4.8-3.7c2.2,0,4.2,1.7,4.2,4c0,0.4-0.1,0.9-0.2,1.4c-5,15-13.6,19.2-20.4,19.2
			c-6.3,0-11.8-3.7-11.8-10.3c0-1.5,0.3-3,0.9-4.7l15-42.8c1.2-3.2,3-4.8,5.7-4.8c2.2,0,4.8,1.8,4.8,4.5c0,0.7-0.1,1.6-0.4,2.4
			l-15.1,43.8C206.2,146.2,206.1,146.7,206.1,147z"/>
		<path fill="#E30613" stroke="#E6332A" stroke-width="0.25" stroke-miterlimit="10" d="M247,133.9c2.2,0,4.3,1.4,4.3,3.5
			c0,0.4-0.1,0.9-0.3,1.4c-4.1,11.8-11.8,18.6-21,18.6c-7.4,0-14-4.3-14-11.7c0-1.5,0.3-3.1,0.9-4.8v0.1l6-17.4h-2.4
			c-1.9,0-3.2-1.7-3.2-3.7c0-2.3,1.7-4.8,5.5-4.8h3l5.8-16.1c0.9-2.5,2.9-4.2,5.3-4.2c3.2,0,5,2.2,5,4.8c0,0.4-0.1,0.9-0.2,1.4
			l-4.8,14h3.2c2.7,0,4,1.7,4,3.5c0,2.4-1.9,5-5.6,5h-4.7l-7.1,20.1c-0.1,0.5-0.3,1.1-0.3,1.6c0,1.9,1.6,3.5,4.2,3.5
			c4.2,0,8.7-3.8,11.6-11.7C243.2,134.9,245.2,133.9,247,133.9z"/>
		<path fill="#E30613" stroke="#E6332A" stroke-width="0.25" stroke-miterlimit="10" d="M285.9,133.3c2.2,0,4.4,1.4,4.4,3.7
			c0,0.4-0.1,0.9-0.2,1.3c-5.1,15-13,19.2-19.8,19.2c-4.3,0-8.2-1.9-10.3-5c-2.7,2.9-5.9,5-10.2,5c-6,0-10.8-4-10.8-9.8
			c0-1.2,0.2-2.5,0.6-3.8l8.4-24.6c1-2.9,3.2-4.1,5.2-4.1c2.7,0,5.3,2,5.3,5c0,0.7-0.1,1.4-0.4,2.2l-7.8,22.5
			c-0.2,0.7-0.4,1.7-0.4,2.2c0,1.1,0.6,1.8,1.7,1.8c2.9,0,6-3.4,8-7.3l7.9-22.1c1.1-3,3.2-4.2,5.3-4.2c2.6,0,5.1,1.9,5.1,4.8
			c0,0.6-0.1,1.3-0.4,2l-8.6,24.1c-0.1,0.4-0.2,0.8-0.2,1.1c0,1,0.9,1.7,2.2,1.7c3.3,0,7.3-3.7,10.5-12.3
			C282.1,134.3,284.1,133.3,285.9,133.3z"/>
		<path fill="#E30613" stroke="#E6332A" stroke-width="0.25" stroke-miterlimit="10" d="M319.8,133.6c2.3,0,4.7,1.4,4.7,3.6
			c0,0.4-0.1,0.7-0.2,1.2c-4.2,12.2-11.4,19.2-19.2,19.2c-6,0-10.9-4.1-10.9-10.4c0-1.4,0.3-3,0.9-4.6l3.2-8.8
			c0.1-0.5,0.2-0.9,0.2-1.3c0-2.4-2.7-3-4.7-3.6l-4,10.8c-0.9,2.3-3,3.5-5,3.5s-3.9-1.2-3.9-3.6c0-0.4,0.1-1,0.2-1.6l5.3-14.2
			c-1.2-1.4-1.8-3.3-1.8-5.1c0-4.1,2.5-7.8,6.8-7.8c3.2,0,6.2,2.8,6.2,6.1c0,0.6-0.1,1.2-0.3,1.8c4,1.2,12.7,4.1,12.7,10.9
			c0,1.2-0.3,2.5-0.7,4l-4.2,11.8c-0.2,0.6-0.3,1.2-0.3,1.6c0,1,0.5,1.9,1.5,1.9c3,0,6.7-5.3,9.4-12.3
			C316.1,134.5,317.9,133.6,319.8,133.6z"/>
		<path fill="#E30613" stroke="#E6332A" stroke-width="0.25" stroke-miterlimit="10" d="M354.2,133.9c2.2,0,4.2,1.2,4.2,3.5
			c0,0.4-0.1,0.9-0.3,1.5c-4.8,13.8-16.1,18.6-26.1,18.6c-10.5,0-18.6-5.3-18.6-13.9c0-1.7,0.4-3.4,0.9-5.1l4.2-12.3
			c2.5-7.2,8.8-10.9,15.2-10.9c8.1,0,13.5,5.3,13.5,12.1c0,1.2-0.2,2.6-0.6,4c-1.9,6.5-7.7,10.6-14.3,10.6c-2.9,0-5.5-0.9-7.6-2.2
			l-0.6,1.4c-0.3,0.7-0.4,1.4-0.4,2c0,3.3,3.3,5.8,8.6,5.8c6.1,0,13.7-3.4,16.8-11.7C350.1,135,352.2,133.9,354.2,133.9z
			 M329.3,127.3l-1.5,4.3c1,0.6,2.4,0.9,3.7,0.9c2.2,0,4.3-0.9,5-3.2c0.2-0.6,0.3-1.2,0.3-1.7c0-2.1-1.3-3.7-3.3-3.7
			C331.9,123.8,330.1,125.1,329.3,127.3z"/>
	</g>
	<g>
	</g>
	<g id="Слой_2">
	</g>
	<g>
	</g>
	<g>
	</g>
	<g>
	</g>
</g>
<g id="Слой_3">
	<g>
	</g>
	<g>
	</g>
	<g>
	</g>
	<g>
	</g>
	<g>
	</g>
	<g>
	</g>
</g>
</svg>
